<?xml version="1.0" standalone="no"?>
<!DOCTYPE svg PUBLIC "-//W3C//DTD SVG 20010904//EN"
 "http://www.w3.org/TR/2001/REC-SVG-20010904/DTD/svg10.dtd">
<svg version="1.0" xmlns="http://www.w3.org/2000/svg"
 width="2000.000000pt" height="2000.000000pt" viewBox="0 0 2000.000000 2000.000000"
 preserveAspectRatio="xMidYMid meet">
<metadata>
Created by potrace 1.14, written by Peter Selinger 2001-2017
</metadata>
<g transform="translate(0.000000,2000.000000) scale(0.100000,-0.100000)"
fill="#000000" stroke="none">
<path d="M11591 15327 c-13 -6 -31 -26 -40 -42 -39 -74 -71 -122 -96 -147 -57
-58 -133 -108 -176 -117 -24 -6 -63 -16 -86 -22 -39 -12 -45 -11 -71 8 -25 19
-29 19 -38 5 -7 -11 -13 -12 -17 -5 -7 12 0 21 38 48 19 13 18 14 -19 15 -69
0 -112 -19 -135 -60 -14 -26 -31 -41 -50 -45 -24 -5 -28 -11 -26 -33 1 -15 9
-43 17 -63 11 -25 13 -41 6 -53 -13 -24 -34 -5 -42 38 -10 51 -29 50 -81 -5
-25 -27 -52 -50 -58 -50 -7 -1 -23 -2 -37 -4 -55 -5 -53 -4 -40 -20 16 -19 13
-22 -25 -30 -101 -19 -110 -18 -128 9 -38 58 -147 8 -147 -67 l1 -32 37 43
c46 53 58 54 32 2 -23 -44 -34 -52 -83 -54 -47 -2 -206 -153 -178 -170 5 -3
20 4 35 15 21 16 26 17 26 5 0 -8 -5 -18 -11 -21 -15 -10 -28 -50 -35 -108 -7
-65 -19 -82 -102 -162 -101 -96 -203 -174 -237 -180 -55 -10 -203 -21 -278
-20 -65 1 -78 5 -121 35 -47 31 -50 32 -63 15 -7 -11 -13 -28 -14 -39 -2 -69
-8 -107 -22 -132 -8 -16 -18 -36 -21 -46 -3 -10 -24 -20 -60 -28 -30 -6 -60
-17 -66 -25 -12 -14 -9 -17 85 -78 37 -24 58 -47 81 -91 17 -32 49 -73 70 -89
60 -47 184 -178 202 -214 10 -17 29 -46 44 -65 19 -23 33 -59 43 -109 8 -41
17 -83 19 -94 3 -11 7 -45 10 -75 8 -66 28 -97 86 -127 24 -13 51 -29 59 -37
10 -8 56 -16 126 -20 221 -12 224 -14 176 -81 -57 -80 -52 -161 14 -225 19
-19 35 -37 35 -41 0 -13 -52 -20 -66 -8 -7 6 -27 36 -44 67 -23 43 -29 63 -24
89 4 23 0 42 -13 65 -11 18 -19 45 -18 61 1 25 -2 27 -40 27 -34 0 -44 -5 -55
-25 -11 -21 -11 -30 5 -66 11 -23 29 -48 41 -55 38 -25 77 -112 79 -174 1 -47
4 -55 20 -57 129 -16 125 -15 152 -50 32 -41 26 -50 -18 -25 -19 10 -41 17
-49 16 -8 -1 -21 -2 -28 -3 -7 0 -21 -18 -30 -38 -14 -31 -41 -77 -59 -102 -2
-2 -11 3 -20 11 -16 14 -38 20 -108 32 -11 2 -30 -1 -42 -5 -17 -6 -25 -4 -33
11 -11 20 -40 28 -115 31 -27 1 -54 5 -60 8 -5 2 -22 5 -38 5 -19 1 -34 8 -41
21 -6 11 -19 31 -28 46 -16 25 -16 26 23 62 43 41 47 52 24 64 -13 8 -13 14 2
53 10 25 24 50 32 56 26 20 -21 34 -114 34 -90 0 -119 -9 -183 -57 -21 -16
-39 -22 -50 -18 -14 6 -12 9 11 17 28 10 35 24 16 30 -7 2 -35 0 -63 -5 -28
-5 -69 -12 -91 -15 -28 -5 -43 -14 -50 -29 -5 -12 -19 -26 -32 -32 -13 -6 -23
-19 -23 -30 0 -20 25 -51 41 -51 5 0 9 -7 9 -15 0 -19 -39 -20 -46 0 -6 15
-56 44 -88 50 -29 6 -32 15 -8 22 12 3 19 9 16 14 -10 16 -73 -2 -165 -47 -70
-35 -89 -48 -80 -57 9 -9 16 -9 29 1 41 30 117 61 121 50 5 -14 -26 -38 -60
-45 -15 -3 -41 -21 -59 -40 -25 -26 -38 -33 -54 -28 -47 14 -55 12 -79 -13
-13 -15 -27 -34 -29 -42 -3 -9 -19 -15 -44 -16 -21 -1 -50 -5 -64 -9 l-25 -8
23 25 c20 23 21 26 7 38 -14 11 -19 10 -34 -6 -10 -10 -22 -35 -25 -55 -6 -32
-3 -39 21 -54 31 -20 63 -54 63 -66 0 -24 64 -76 141 -115 49 -24 92 -44 96
-43 19 3 39 -3 56 -15 18 -14 18 -15 0 -37 -37 -45 -53 -59 -71 -59 -26 0 -42
20 -42 53 0 31 -16 33 -34 4 -8 -13 -7 -24 5 -45 32 -56 38 -68 60 -124 21
-54 21 -57 4 -74 -13 -13 -16 -28 -12 -62 6 -57 49 -102 141 -149 39 -19 86
-45 105 -57 58 -37 152 -56 175 -37 7 6 68 12 143 13 l129 3 46 -35 c25 -19
51 -47 57 -62 15 -34 33 -36 54 -5 13 20 13 25 -10 64 -13 23 -20 44 -14 47
10 7 74 -110 67 -123 -7 -11 22 -51 38 -51 7 0 25 14 42 31 57 62 126 109 181
125 39 11 57 22 61 36 3 15 10 18 26 13 45 -14 62 -11 97 16 20 16 41 29 47
29 5 0 24 -16 41 -35 39 -45 41 -88 6 -124 -13 -14 -33 -36 -42 -49 -17 -22
-20 -23 -48 -8 -43 23 -64 20 -76 -11 -13 -36 -6 -50 29 -58 22 -4 34 -16 47
-46 10 -21 22 -39 27 -39 6 0 7 -35 3 -86 -5 -64 -3 -91 7 -107 17 -27 15 -65
-7 -112 -21 -42 -128 -155 -150 -156 -39 -3 -54 -2 -113 5 -53 6 -65 11 -84
36 -12 17 -29 32 -38 35 -9 3 -22 16 -28 30 -22 48 -92 41 -92 -9 0 -19 6 -23
47 -25 26 -1 49 -4 52 -6 2 -2 -18 -26 -44 -52 -26 -26 -55 -58 -64 -69 -9
-12 -30 -28 -46 -37 -17 -8 -39 -25 -50 -37 -11 -12 -37 -31 -58 -42 l-39 -19
-36 27 c-20 15 -54 45 -74 67 -49 53 -87 77 -121 77 -34 0 -79 -24 -96 -52
-11 -18 -7 -26 37 -72 27 -28 52 -59 55 -68 12 -34 -12 -27 -58 17 -71 68 -80
71 -115 37 -31 -32 -60 -115 -61 -178 0 -21 -8 -53 -17 -70 -14 -29 -18 -31
-46 -23 -38 11 -55 0 -168 -109 -101 -97 -118 -128 -118 -209 l0 -60 -65 2
c-36 1 -65 -2 -65 -5 0 -4 -11 -19 -24 -33 -21 -23 -35 -68 -41 -132 -1 -11 6
-27 17 -36 10 -9 25 -33 33 -53 9 -21 26 -41 40 -46 14 -5 23 -15 20 -22 -10
-32 -13 -84 -5 -98 7 -11 10 -7 15 16 12 51 13 50 14 -3 1 -62 23 -83 60 -57
20 15 24 14 45 -9 12 -13 28 -26 36 -29 23 -7 1 -28 -30 -28 -32 0 -42 -16
-28 -43 6 -12 19 -18 36 -17 15 1 32 2 39 1 17 -1 5 -31 -23 -59 -13 -13 -24
-31 -24 -40 0 -20 -24 -57 -37 -57 -21 -1 -103 -41 -103 -51 0 -19 34 -42 57
-38 22 4 40 -21 23 -31 -20 -13 -9 -42 33 -82 l42 -42 21 22 c11 12 38 44 59
72 38 51 72 81 81 72 3 -3 -20 -40 -51 -83 -30 -43 -58 -89 -62 -103 -8 -34
33 -109 75 -136 28 -18 30 -24 25 -60 -6 -48 19 -85 74 -111 44 -22 158 -26
195 -7 15 7 44 16 65 19 21 3 52 16 69 29 17 14 44 26 60 29 50 9 63 36 57
120 l-5 74 30 16 c17 9 44 37 59 64 35 60 54 82 70 82 24 0 13 -25 -42 -90
-30 -35 -55 -68 -55 -72 0 -4 -6 -8 -14 -8 -30 0 -36 -68 -8 -93 10 -10 21
-15 23 -12 3 2 5 -37 4 -88 0 -77 4 -98 22 -127 24 -39 58 -127 68 -177 6 -28
1 -40 -32 -80 -21 -26 -46 -55 -55 -65 -20 -20 -23 -56 -7 -111 9 -35 13 -38
41 -33 16 2 36 2 44 -1 25 -9 15 -23 -24 -29 l-37 -6 3 -71 c3 -66 2 -75 -22
-100 -22 -24 -30 -27 -64 -21 -22 3 -42 2 -45 -3 -12 -19 20 -46 56 -48 21 -2
46 -12 62 -28 l27 -24 59 25 c40 18 59 33 61 47 2 13 24 31 68 53 53 27 69 31
88 22 25 -11 49 -3 73 26 24 29 91 66 101 56 5 -5 10 -33 11 -63 3 -72 13 -87
39 -59 21 23 42 15 53 -20 11 -34 36 -32 72 6 19 20 35 35 36 33 1 -2 16 -22
33 -44 40 -51 69 -110 79 -155 22 -105 110 -169 157 -113 9 11 9 24 0 59 -16
59 -15 105 3 128 8 11 15 30 15 43 0 12 9 27 20 33 17 9 20 8 20 -13 0 -14 11
-32 26 -43 14 -10 37 -40 50 -66 31 -61 58 -65 153 -22 29 13 71 26 93 29 41
5 67 16 90 37 13 13 83 48 94 48 4 0 3 -8 -1 -17 -4 -10 -7 -28 -6 -40 0 -16
-14 -33 -52 -61 -28 -22 -58 -51 -66 -65 -8 -15 -18 -27 -22 -27 -14 0 -49
-68 -52 -101 -2 -19 1 -46 5 -60 7 -21 16 -26 45 -27 45 -2 57 -13 41 -35 -12
-16 -15 -16 -53 3 -22 11 -43 16 -48 11 -11 -11 -79 -259 -79 -291 0 -14 3
-39 7 -56 7 -30 6 -31 -20 -26 -21 4 -35 -3 -67 -34 -22 -22 -46 -51 -54 -67
-12 -22 -19 -26 -39 -21 -21 5 -34 -4 -85 -58 -33 -36 -75 -85 -94 -110 l-35
-46 19 -38 c15 -29 17 -41 8 -51 -14 -17 -54 -9 -81 14 -22 21 -50 9 -111 -47
-35 -33 -50 -40 -83 -40 -23 0 -50 -8 -64 -18 -13 -10 -55 -33 -93 -51 -88
-43 -221 -173 -262 -257 -27 -55 -27 -58 -9 -68 10 -6 36 -26 57 -44 31 -29
36 -37 27 -53 -10 -19 -11 -19 -40 1 -16 12 -29 28 -29 36 0 18 -39 34 -77 31
-33 -3 -34 -29 -1 -64 20 -21 20 -23 3 -29 -25 -10 -61 34 -70 85 -6 36 -3 42
26 70 17 17 36 31 41 31 5 0 6 5 3 10 -10 16 -35 12 -53 -10 -12 -14 -34 -21
-79 -24 -35 -3 -63 -3 -63 0 0 3 10 15 23 25 l22 20 -40 -5 c-45 -4 -178 -53
-216 -77 -13 -9 -49 -28 -80 -43 -63 -29 -179 -143 -179 -175 0 -23 -25 -46
-35 -32 -4 7 -29 -4 -64 -29 -47 -31 -70 -40 -115 -43 -37 -3 -67 -12 -91 -28
-42 -29 -43 -35 -10 -61 28 -22 32 -49 11 -67 -18 -15 -15 -55 5 -59 9 -2 29
8 44 21 l27 23 -20 45 c-17 36 -18 46 -8 57 29 30 82 -29 69 -77 -7 -26 8 -27
32 -1 21 23 38 17 30 -11 -8 -23 -7 -23 39 -4 36 15 41 26 36 85 -1 13 -9 29
-18 36 -18 13 -10 44 12 44 23 0 39 -39 32 -78 -3 -20 -1 -42 6 -49 14 -17 43
-17 60 0 24 24 65 47 71 40 4 -3 7 -15 7 -25 0 -13 6 -18 18 -16 12 2 18 14
20 41 3 36 5 38 32 32 23 -5 31 -2 41 17 7 13 20 29 30 35 9 7 22 36 29 65 16
67 25 85 51 99 27 14 104 -13 120 -43 15 -29 4 -34 -35 -15 -39 18 -46 14 -70
-44 -17 -41 -11 -55 27 -64 52 -14 114 3 149 41 l32 34 24 -25 c25 -28 62 -33
62 -10 0 8 -1 16 -2 18 -1 1 4 12 11 25 10 18 15 21 26 12 8 -6 11 -19 8 -28
-6 -15 -5 -16 13 -2 10 8 29 24 41 36 13 11 36 21 53 22 51 1 68 11 83 51 17
42 32 51 83 51 27 0 37 -5 43 -22 11 -29 -5 -87 -32 -116 -18 -20 -19 -24 -7
-32 25 -16 37 -11 69 27 26 31 31 46 31 90 0 40 5 58 20 73 19 19 22 19 51 5
44 -23 118 -13 144 19 13 16 32 26 53 28 20 1 32 8 32 17 0 31 25 81 43 87 28
9 31 -2 13 -40 -18 -39 -20 -62 -6 -71 10 -6 50 29 50 43 0 5 11 15 25 22 14
7 25 20 25 27 0 27 -32 63 -56 63 -38 0 -31 40 16 90 39 42 40 43 60 25 18
-16 25 -17 54 -7 18 7 44 12 58 12 14 0 32 7 39 16 11 14 10 18 -9 33 l-22 16
31 19 c30 18 31 18 50 -3 13 -14 32 -21 55 -21 39 0 54 21 31 44 -13 13 -13
21 -2 53 16 45 24 49 53 23 30 -28 42 -26 101 25 29 25 59 45 67 45 8 0 20 11
26 25 7 16 19 25 33 25 28 0 77 24 100 50 21 23 25 94 6 113 -6 6 -11 15 -11
19 0 14 82 60 149 83 57 20 67 27 77 55 6 18 18 37 27 42 10 5 17 17 17 27 0
27 9 30 42 19 26 -9 32 -8 40 7 6 9 21 27 35 38 14 12 31 34 39 49 17 32 39
46 90 54 20 3 47 10 60 14 12 5 25 6 28 3 3 -4 6 -1 6 5 0 6 7 18 16 26 12 12
20 13 35 5 24 -12 43 0 65 42 18 37 18 76 -2 87 -12 7 -7 12 23 24 33 12 42
23 57 64 29 83 22 75 118 119 63 29 93 60 103 105 10 44 -2 68 -43 89 -20 10
-46 28 -56 40 -16 18 -31 21 -91 21 -58 0 -75 4 -89 19 -17 19 -17 21 7 53 13
18 30 50 37 71 8 27 22 43 49 57 47 24 66 46 66 79 0 19 6 27 23 29 20 3 21 7
16 41 -5 34 -4 39 17 44 32 9 49 9 48 0 -5 -32 3 -43 30 -43 56 0 120 90 76
106 -27 11 -16 31 20 37 50 8 97 40 130 87 27 38 27 41 11 59 -10 11 -28 22
-42 25 -39 10 -27 26 20 26 42 0 46 3 75 48 17 27 33 64 35 82 2 22 16 45 41
68 20 19 40 45 45 57 6 15 20 25 44 29 20 4 37 12 37 19 1 7 2 30 3 52 2 53 7
59 87 111 38 24 77 53 87 65 9 11 41 36 70 55 58 37 67 54 77 135 9 77 24 129
37 129 7 0 8 -13 4 -37 -4 -21 -10 -70 -12 -109 -7 -82 3 -97 66 -96 35 1 100
27 100 42 0 6 40 54 83 99 34 35 62 50 109 55 43 5 33 -10 -15 -23 -57 -14
-93 -43 -107 -86 -12 -36 -90 -96 -142 -109 -25 -6 -47 -40 -33 -54 3 -3 15
-1 26 6 16 11 28 8 79 -20 33 -17 60 -35 60 -40 0 -4 8 -8 18 -8 9 0 26 -8 37
-16 19 -15 19 -16 -10 -10 -16 4 -41 8 -55 11 -13 3 -34 -2 -47 -10 -31 -21
-40 -19 -83 15 -21 17 -44 30 -52 30 -19 0 -114 -67 -160 -113 -20 -20 -46
-37 -57 -37 -26 0 -68 -26 -81 -51 -7 -13 -5 -32 9 -66 20 -53 20 -59 -4 -141
-31 -103 -46 -138 -71 -166 -42 -44 -77 -132 -70 -172 8 -39 69 -104 98 -104
17 0 73 32 88 50 9 11 70 51 70 46 0 -17 -66 -107 -82 -112 -11 -3 -26 -21
-34 -40 -8 -19 -20 -35 -27 -35 -6 -1 -23 -2 -37 -3 -14 0 -31 -5 -37 -9 -7
-5 -13 -6 -13 -2 0 3 -9 1 -20 -5 -11 -6 -20 -17 -20 -25 0 -8 -6 -15 -14 -15
-17 0 -29 -31 -21 -52 8 -21 53 -52 97 -68 35 -13 39 -12 63 10 19 18 35 23
65 22 29 -2 40 1 40 12 0 8 -6 17 -12 19 -7 3 1 6 18 6 22 1 36 -6 46 -21 15
-23 15 -23 36 17 11 22 39 55 61 73 36 29 41 38 37 63 -2 16 0 29 5 29 5 0 9
-9 9 -20 0 -32 26 -23 36 12 12 42 29 46 29 6 0 -26 5 -34 21 -36 17 -2 25 6
38 40 10 23 26 48 37 56 10 7 19 20 19 28 0 19 17 18 29 -3 14 -26 23 -10 25
41 1 49 15 75 17 33 2 -35 3 -40 12 -55 12 -18 24 -7 31 30 3 18 8 44 11 58
14 75 55 111 55 49 0 -52 32 -27 45 35 6 29 6 29 21 7 11 -15 26 -21 54 -21
21 0 45 -7 54 -15 20 -20 32 -19 50 6 8 12 19 18 24 15 6 -3 19 10 31 30 23
39 41 39 33 -2 -6 -33 11 -44 52 -31 48 15 58 21 74 46 14 20 14 22 -6 28 -15
3 -22 13 -22 29 0 29 -27 44 -82 44 -42 1 -42 1 -23 18 11 9 31 34 45 54 26
40 40 48 40 23 0 -19 0 -17 15 -62 8 -25 20 -39 33 -41 17 -3 24 8 42 67 16
50 20 74 12 83 -5 7 -10 26 -10 41 1 41 -19 57 -39 32 -8 -11 -19 -32 -25 -47
-9 -25 -30 -40 -27 -20 7 46 -21 86 -56 80 -21 -4 -21 -4 -4 30 24 46 15 66
-27 59 -32 -5 -34 -4 -34 23 0 17 14 52 30 78 17 27 30 58 30 69 0 10 5 24 11
30 7 7 13 22 14 35 1 13 3 28 4 35 2 18 52 74 61 68 13 -8 4 -41 -18 -73 -11
-15 -23 -43 -27 -62 -4 -19 -14 -46 -22 -59 -23 -36 -31 -74 -22 -99 l9 -24
34 21 c18 12 41 21 51 21 12 0 16 6 12 19 -2 11 3 25 14 35 11 9 20 29 20 46
2 42 3 47 12 56 4 4 7 -4 7 -17 1 -13 11 -37 25 -53 l23 -29 19 30 c18 29 45
36 87 20 10 -4 28 5 50 23 18 17 36 30 38 30 3 0 3 -13 0 -29 -5 -37 30 -91
60 -91 19 0 19 -2 -6 -27 -51 -51 -5 -86 51 -39 33 28 44 24 57 -21 9 -27 14
-28 45 -7 19 14 25 14 32 3 13 -20 11 -49 -3 -49 -27 0 -87 -36 -88 -52 0 -24
27 -23 68 2 41 25 52 25 52 0 0 -17 7 -20 42 -20 31 0 49 -7 67 -24 55 -51 97
-36 153 54 23 39 48 70 54 70 6 0 16 -18 23 -40 6 -21 16 -42 22 -46 6 -4 1
-11 -13 -18 -12 -6 -24 -22 -26 -34 -7 -50 135 -134 173 -102 21 18 19 43 -7
64 -21 18 -21 19 -3 32 29 22 49 -4 47 -59 -2 -30 2 -48 13 -57 21 -17 19 -27
-7 -34 -18 -4 -20 -8 -10 -18 26 -26 156 -3 387 68 53 16 61 17 230 11 84 -2
116 -7 137 -21 32 -21 55 -12 88 34 41 58 77 20 40 -43 -25 -43 -14 -56 57
-63 26 -3 69 -14 94 -24 56 -23 85 -25 163 -11 97 17 162 81 192 188 9 34 22
64 29 67 7 2 33 -12 58 -32 24 -20 53 -42 63 -48 16 -10 17 -13 5 -28 -16 -19
-41 -21 -41 -3 0 6 -16 27 -35 46 -38 38 -43 35 -48 -34 -2 -22 2 -54 9 -71 7
-17 12 -33 10 -35 -2 -2 -6 -30 -10 -61 -5 -49 -3 -60 14 -76 21 -19 145 -69
241 -97 31 -8 71 -27 89 -40 19 -14 43 -25 54 -25 60 -1 179 -83 196 -135 7
-22 21 -37 42 -46 17 -7 53 -28 79 -46 65 -44 166 -91 214 -99 53 -8 94 -26
129 -58 33 -30 39 -31 55 -12 9 10 8 16 -4 26 -23 19 -18 25 20 26 45 1 51 8
32 38 -19 28 -11 42 12 23 30 -26 50 -27 78 -3 l27 23 -19 29 c-10 16 -27 37
-37 48 -10 11 -18 25 -18 31 0 16 -33 45 -52 45 -8 0 -23 -9 -33 -20 -10 -11
-20 -18 -23 -16 -2 3 3 12 12 21 21 22 14 32 -34 46 -22 7 -51 25 -65 40 -20
24 -33 29 -70 29 -31 0 -47 -5 -54 -17 -18 -33 -21 -7 -3 29 18 34 20 35 43
22 39 -21 57 -18 54 11 -4 33 5 32 41 -6 16 -17 44 -38 62 -45 17 -8 32 -19
32 -24 0 -17 36 -11 53 8 23 25 21 40 -9 83 -14 21 -24 46 -22 56 3 14 8 11
23 -15 18 -29 24 -33 52 -29 43 7 47 -1 18 -35 -14 -16 -25 -35 -25 -42 0 -7
17 -35 38 -62 20 -27 44 -71 52 -99 13 -43 20 -50 43 -53 15 -2 33 -12 40 -23
15 -24 34 -24 42 0 10 34 33 32 70 -5 30 -30 41 -35 73 -32 25 2 38 8 40 20 2
9 -15 55 -37 103 -23 48 -41 93 -41 100 0 8 -10 26 -23 42 -37 46 -117 169
-117 180 0 5 -8 18 -18 29 -26 28 -63 112 -65 147 -2 36 18 47 28 16 4 -13 29
-46 55 -73 39 -42 49 -60 53 -97 8 -68 32 -119 56 -119 10 0 21 6 24 13 9 25
24 -9 26 -59 1 -11 32 -51 71 -91 63 -64 74 -71 119 -76 27 -3 72 -17 100 -32
28 -14 52 -23 52 -20 5 20 4 33 -4 55 -17 47 -18 78 -3 114 8 20 22 36 31 36
10 0 13 -4 8 -12 -4 -7 -9 -61 -10 -120 l-3 -106 35 -33 c42 -40 73 -44 88
-12 12 27 25 30 34 7 3 -9 -3 -21 -16 -30 -11 -8 -21 -23 -21 -33 0 -19 43
-75 60 -77 5 -1 20 -2 32 -3 19 -1 20 -3 6 -18 -31 -36 6 -117 48 -107 13 3
24 2 24 -4 0 -5 15 -32 32 -60 34 -52 61 -65 86 -40 7 7 12 8 12 2 0 -5 -19
-18 -42 -29 -49 -23 -60 -51 -30 -78 27 -24 75 -37 96 -25 22 12 107 -28 113
-53 6 -22 97 -90 121 -91 10 0 32 3 51 7 33 8 34 7 27 -19 -6 -25 -5 -26 26
-24 33 3 33 3 33 -42 l0 -45 81 -40 c45 -22 88 -46 97 -53 19 -16 63 -21 100
-11 15 4 27 4 27 0 0 -20 -29 -40 -60 -43 l-35 -3 1 -50 c1 -27 3 -84 4 -125
2 -45 -2 -85 -9 -101 -21 -44 0 -100 49 -128 44 -24 61 -21 55 9 -2 11 2 35
10 53 11 28 11 40 -6 92 -20 65 -19 68 34 127 22 25 120 98 132 98 3 0 5 -5 5
-10 0 -6 29 -38 65 -71 60 -56 77 -80 58 -79 -5 1 -35 25 -68 55 -33 30 -67
55 -76 55 -9 0 -34 -20 -57 -45 -22 -25 -48 -45 -56 -45 -26 0 -28 -19 -6 -50
12 -17 19 -30 16 -30 -2 0 0 -15 5 -32 6 -18 10 -61 10 -95 0 -42 4 -65 14
-73 18 -15 20 -33 3 -27 -7 2 -21 0 -31 -5 -15 -8 -16 -11 -2 -36 25 -47 71
-95 83 -88 7 4 12 22 12 39 0 18 7 46 16 62 9 18 14 43 10 62 -4 30 -3 31 14
21 23 -15 33 -7 33 27 0 15 4 24 11 22 19 -6 16 -50 -5 -80 -20 -28 -25 -53
-34 -169 -5 -67 6 -79 46 -49 15 11 33 21 39 21 18 0 11 66 -10 93 -11 14 -20
30 -20 35 0 18 20 24 36 11 23 -19 43 -19 53 -1 9 18 7 190 -3 232 -15 66 -17
80 -8 80 19 0 45 -55 48 -102 4 -77 46 -122 82 -86 6 6 14 9 18 6 3 -3 -17
-28 -45 -55 -36 -35 -51 -58 -51 -76 0 -31 30 -53 48 -35 9 9 11 0 10 -33 -2
-37 4 -56 30 -97 44 -67 55 -76 81 -62 27 14 101 112 101 134 0 9 7 31 16 49
19 36 26 262 9 275 -6 4 -30 49 -54 99 -40 86 -43 98 -42 172 1 72 -1 81 -26
109 -34 38 -69 52 -116 45 -26 -3 -53 4 -101 26 -75 34 -154 60 -209 67 -21 3
-50 9 -64 15 -14 5 -51 12 -82 15 -83 8 -132 29 -170 74 -19 22 -39 40 -45 40
-6 1 -42 46 -81 102 -38 55 -93 123 -122 151 -29 27 -92 90 -141 141 -49 50
-100 101 -113 113 -72 68 -99 98 -149 167 -30 42 -58 76 -62 76 -4 0 -19 17
-32 38 -14 23 -40 46 -63 56 -21 10 -51 33 -68 51 -24 27 -46 38 -110 55 -97
25 -125 45 -145 98 -19 53 -125 135 -191 147 -39 8 -73 31 -80 55 -29 104 -32
110 -83 145 -35 24 -72 39 -115 47 l-64 12 -59 -64 c-33 -36 -72 -87 -88 -113
-24 -43 -27 -59 -28 -143 -2 -103 -12 -134 -44 -134 -20 0 -48 -26 -145 -133
-61 -67 -84 -61 -97 28 -10 65 -24 89 -70 118 -24 15 -47 27 -51 27 -4 0 -35
20 -69 44 -33 24 -74 50 -91 59 -16 8 -59 45 -95 82 -36 36 -85 77 -110 90
-41 21 -74 50 -108 96 -10 13 -9 26 3 64 9 26 15 48 13 50 -23 20 -71 34 -90
26 -13 -5 -55 -19 -95 -31 -39 -12 -86 -33 -104 -46 -18 -13 -44 -24 -58 -24
-14 0 -57 -12 -96 -25 -80 -29 -115 -31 -154 -10 -29 14 -38 41 -57 170 -6 42
-32 211 -39 255 -2 14 -9 57 -15 95 -6 39 -19 124 -30 190 -10 66 -22 138 -25
160 -3 23 -8 52 -10 65 -3 14 -12 68 -20 120 -9 52 -18 106 -20 120 -2 14 -7
48 -11 75 -3 28 -8 53 -10 56 -2 3 -6 34 -10 70 -3 35 -8 67 -10 70 -3 5 -30
166 -39 233 -5 42 -11 74 -55 346 -22 129 -44 267 -50 305 -13 84 -18 112 -30
185 -5 30 -11 71 -14 90 -3 19 -16 103 -30 185 -37 222 -65 395 -71 440 -3 22
-8 51 -11 65 -3 14 -8 39 -10 55 -3 27 -12 86 -19 125 -2 13 -12 71 -30 185
-2 11 -6 36 -9 55 -13 75 -16 96 -21 135 -3 22 -7 47 -9 55 -1 8 -6 38 -10 65
-4 28 -16 100 -26 160 -23 138 -28 164 -40 250 -6 39 -22 138 -36 220 -13 83
-26 164 -29 180 -9 65 -16 111 -20 130 -2 11 -13 79 -24 150 -12 72 -23 141
-25 155 -3 14 -21 121 -41 239 -20 118 -38 218 -41 223 -3 4 -19 8 -35 8 -17
0 -28 -4 -25 -9 3 -5 -1 -11 -9 -15 -20 -7 -28 9 -10 24 12 10 12 15 -1 35 -8
13 -29 28 -45 34 -25 9 -29 8 -29 -9 0 -18 -2 -18 -32 -3 -18 9 -40 20 -48 25
-8 5 -30 15 -49 24 -19 9 -49 26 -65 39 -17 13 -50 28 -72 34 -32 8 -43 17
-48 36 -8 30 -36 34 -36 5 0 -15 -7 -20 -26 -20 -20 0 -24 4 -19 19 8 26 -13
37 -33 17 -16 -16 -16 -18 1 -31 17 -12 15 -14 -19 -25 -21 -7 -49 -23 -63
-36 -14 -13 -33 -24 -41 -24 -8 0 -39 -11 -68 -25 -72 -33 -135 -27 -205 20
-29 19 -60 35 -70 35 -14 0 -17 5 -12 19 4 14 0 23 -15 31 -23 12 -45 3 -45
-19 0 -16 -16 -19 -125 -26 -51 -3 -68 -8 -78 -23 -13 -20 -14 -20 -37 4 -13
13 -31 24 -40 24 -8 0 -15 4 -15 8 0 16 -52 34 -63 23 -8 -8 -16 -6 -28 5 -15
13 -18 13 -32 -1 -21 -21 -24 -19 -20 13 3 24 -2 30 -54 55 -62 30 -93 29 -93
-5 0 -11 -4 -16 -11 -13 -6 4 -8 12 -6 19 3 7 -4 23 -14 37 -10 13 -19 32 -19
42 0 21 -3 21 -38 3 -15 -7 -46 -16 -69 -19 -23 -4 -76 -23 -118 -42 -80 -38
-99 -41 -65 -10 29 26 25 42 -15 49 -35 7 -66 -4 -93 -31 -20 -20 -63 -27 -83
-14 -10 6 -30 11 -43 11 -26 0 -47 21 -28 28 7 2 12 12 12 23 0 13 -7 19 -24
19 -14 0 -28 -4 -31 -10 -9 -15 -58 -13 -52 3 2 6 14 12 27 12 39 0 34 22 -7
30 -66 12 -75 36 -34 94 12 16 21 32 21 35 0 13 -50 37 -90 42 -24 4 -60 12
-80 19 -19 6 -46 9 -60 5 -14 -4 -47 -6 -75 -5 -40 2 -56 -3 -78 -21 -33 -28
-58 -30 -92 -8 -22 14 -24 21 -19 69 l5 54 -45 30 c-44 31 -45 31 -75 13 -17
-9 -31 -20 -31 -24 0 -3 -16 -25 -35 -48 -27 -33 -33 -46 -25 -60 7 -13 6 -21
-5 -30 -25 -21 -55 -7 -81 38 l-26 43 34 -6 c39 -7 63 12 78 65 9 31 7 35 -48
86 -31 29 -69 56 -84 59 -34 8 -34 12 -6 34 39 32 -1 54 -51 28z m646 -504
c29 -14 53 -32 53 -38 0 -7 -25 -18 -56 -25 -55 -13 -56 -13 -75 11 -10 13
-19 36 -19 52 0 36 27 36 97 0z m-107 -55 c0 -5 -5 -8 -10 -8 -13 0 -30 41
-22 54 5 8 31 -30 32 -46z m670 -118 c0 -5 -5 -10 -11 -10 -5 0 -7 5 -4 10 3
6 8 10 11 10 2 0 4 -4 4 -10z m-44 -30 c17 0 18 -14 2 -43 l-12 -22 -7 25 c-8
28 -10 71 -2 53 2 -7 11 -13 19 -13z m-2474 -53 c-18 -17 -32 -27 -32 -21 0
15 51 66 59 59 3 -3 -9 -20 -27 -38z m3009 0 c-10 -9 -11 -8 -5 6 3 10 9 15
12 12 3 -3 0 -11 -7 -18z m5 -73 c-46 -40 -60 -43 -45 -10 10 22 68 57 79 48
3 -2 -13 -19 -34 -38z m-4018 -1981 c-10 -2 -26 -2 -35 0 -10 3 -2 5 17 5 19
0 27 -2 18 -5z m1352 -27 c0 -8 -9 -18 -20 -21 -11 -3 -20 -12 -20 -19 0 -7 9
-22 20 -34 11 -12 20 -31 20 -42 0 -20 -4 -20 -73 -16 -55 4 -79 2 -93 -9 -32
-24 -64 -17 -108 23 -22 21 -52 45 -65 54 -22 15 -23 20 -13 43 9 20 19 25 48
25 20 0 53 -5 73 -11 28 -8 49 -7 91 5 73 20 140 21 140 2z m-1970 -3075 c0
-12 -20 -25 -27 -18 -7 7 6 27 18 27 5 0 9 -4 9 -9z m138 -227 c12 -8 22 -24
22 -35 0 -18 4 -20 29 -14 17 3 38 2 48 -3 38 -20 82 -21 107 -1 26 21 51 25
61 10 3 -6 -2 -14 -11 -19 -15 -8 -14 -11 4 -24 24 -16 52 -65 52 -89 0 -18
-72 -55 -88 -45 -6 3 -9 18 -7 34 5 38 -3 60 -26 72 -16 9 -22 6 -40 -25 -19
-31 -48 -47 -50 -27 -3 36 -12 58 -27 66 -9 5 -36 29 -58 52 -23 24 -46 44
-52 44 -6 0 -14 5 -17 10 -10 16 28 12 53 -6z m4838 -243 c-7 -11 -46 -21 -46
-12 0 13 13 21 32 21 11 0 17 -4 14 -9z m551 -87 c-3 -3 -12 -4 -19 -1 -8 3
-5 6 6 6 11 1 17 -2 13 -5z m208 -116 c6 -6 5 -12 -5 -18 -9 -6 -19 -2 -32 12
-10 12 -18 23 -18 25 0 7 44 -8 55 -19z m-755 -119 c0 -5 -109 -39 -125 -39
-15 0 11 30 33 38 30 10 92 10 92 1z m2727 -176 c-3 -10 -5 -4 -5 12 0 17 2
24 5 18 2 -7 2 -21 0 -30z m-4513 -272 c9 -14 -21 -40 -52 -47 -49 -11 -95
-39 -111 -68 -29 -52 -45 -63 -111 -70 -35 -4 -80 -16 -100 -26 -35 -18 -154
-35 -170 -25 -13 8 9 74 33 102 32 36 55 46 117 50 94 5 120 13 158 47 20 19
46 35 57 38 43 8 174 8 179 -1z m-1300 -372 c-3 -5 -10 -9 -16 -9 -6 0 -26
-11 -45 -26 -41 -31 -43 -20 -2 22 20 21 37 30 50 27 10 -3 16 -9 13 -14z
m7952 -114 c18 -15 18 -15 -10 -13 -16 2 -31 9 -34 16 -5 17 20 15 44 -3z
m-7394 -568 c75 -26 118 -85 104 -142 -8 -31 -18 -32 -31 -2 -7 15 -29 28 -70
42 -101 34 -121 45 -139 76 -13 23 -14 30 -4 33 7 3 20 7 28 9 20 6 66 0 112
-16z"/>
<path d="M11700 15286 c0 -18 31 -29 44 -16 8 8 7 14 -4 20 -22 14 -40 12 -40
-4z"/>
<path d="M11765 15220 c-3 -5 -4 -10 -1 -10 2 0 12 -3 20 -6 12 -5 15 -2 10
10 -7 18 -20 21 -29 6z"/>
<path d="M11822 15179 c2 -7 10 -15 17 -17 8 -3 12 1 9 9 -2 7 -10 15 -17 17
-8 3 -12 -1 -9 -9z"/>
<path d="M12885 14810 c-7 -12 2 -30 16 -30 5 0 9 9 9 20 0 21 -15 27 -25 10z"/>
<path d="M13020 14790 c0 -13 7 -20 18 -20 26 0 34 11 21 27 -17 20 -39 16
-39 -7z"/>
<path d="M10500 14783 c0 -10 34 -32 49 -33 10 0 11 3 2 14 -12 14 -51 29 -51
19z"/>
<path d="M13160 14750 c0 -11 2 -20 4 -20 2 0 11 -3 20 -6 24 -9 20 23 -4 36
-17 9 -20 8 -20 -10z"/>
<path d="M13290 14734 c0 -8 5 -12 10 -9 6 3 10 10 10 16 0 5 -4 9 -10 9 -5 0
-10 -7 -10 -16z"/>
<path d="M13446 14663 c-12 -12 -5 -23 14 -23 11 0 20 4 20 9 0 11 -26 22 -34
14z"/>
<path d="M13562 14648 c6 -16 36 -34 44 -25 9 9 -15 37 -33 37 -8 0 -13 -5
-11 -12z"/>
<path d="M13655 14622 c14 -15 40 -19 43 -7 1 6 -10 11 -25 13 -19 2 -25 0
-18 -6z"/>
<path d="M14200 14610 c-8 -5 -11 -12 -8 -16 10 -9 38 3 38 16 0 12 -10 13
-30 0z"/>
<path d="M9682 12518 c-14 -14 -16 -38 -4 -38 5 0 16 6 26 13 15 11 16 15 4
25 -11 9 -17 9 -26 0z"/>
<path d="M8604 12306 c-23 -20 -27 -27 -16 -37 10 -11 17 -8 39 14 20 19 24
30 16 38 -7 7 -19 3 -39 -15z"/>
<path d="M7249 11328 c-48 -42 -62 -68 -66 -130 -7 -99 -1 -103 142 -100 134
3 140 1 181 -80 13 -26 37 -63 54 -81 16 -19 30 -40 30 -46 0 -6 3 -11 8 -11
4 0 23 -29 41 -65 19 -36 40 -65 47 -65 7 0 24 14 37 30 23 27 32 30 81 30 30
0 58 -4 61 -10 3 -5 21 -10 40 -10 26 0 38 7 54 29 12 16 21 35 21 43 0 8 -25
24 -54 37 -61 25 -231 142 -245 169 -5 9 -11 31 -14 47 -3 17 -8 49 -12 73 -7
39 -10 42 -39 42 -17 0 -51 -10 -76 -21 -77 -35 -115 -35 -154 -2 -19 15 -46
36 -60 46 -14 10 -29 32 -34 49 -9 36 -22 44 -43 26z"/>
<path d="M6283 9649 c-17 -17 13 -100 59 -158 36 -47 108 -89 108 -63 0 13
-91 101 -110 107 -12 4 -14 18 -12 65 3 53 2 60 -15 60 -11 0 -24 -5 -30 -11z"/>
<path d="M7906 8972 c-3 -3 -6 -21 -6 -41 0 -27 9 -45 36 -73 19 -21 40 -38
45 -38 5 0 56 -43 113 -95 57 -52 107 -95 110 -95 3 0 6 9 6 21 0 14 6 19 18
18 9 -2 33 1 52 6 19 6 51 10 70 10 l35 0 0 61 c0 45 5 67 18 81 24 28 21 50
-10 70 -16 9 -42 30 -59 45 l-31 29 -64 -15 c-35 -8 -80 -21 -99 -30 -34 -14
-39 -13 -105 16 -71 30 -118 41 -129 30z"/>
<path d="M13910 8886 c0 -15 37 -32 47 -22 3 3 3 12 0 21 -8 19 -47 20 -47 1z"/>
<path d="M13701 8762 c-12 -22 -6 -32 21 -32 21 0 24 23 4 39 -12 10 -17 8
-25 -7z"/>
<path d="M13841 8757 c-15 -15 -14 -32 2 -46 11 -8 19 -5 37 14 13 14 21 27
18 30 -11 12 -46 13 -57 2z"/>
<path d="M14095 8643 c-13 -34 -16 -71 -5 -78 5 -3 10 -17 10 -31 0 -22 3 -24
22 -18 13 4 34 15 48 26 14 10 39 21 55 24 70 13 59 40 -30 70 -84 29 -91 29
-100 7z"/>
<path d="M13937 8563 c-4 -3 -7 -17 -7 -31 0 -37 -56 -134 -111 -193 -27 -29
-49 -61 -49 -71 0 -10 -7 -21 -15 -24 -20 -8 -19 -27 3 -47 24 -22 34 -21 58
1 11 10 32 27 47 37 21 14 27 24 23 40 -4 14 1 28 12 38 10 9 19 29 20 46 1
20 18 45 52 80 28 28 50 57 50 64 0 15 -51 67 -66 67 -6 0 -14 -3 -17 -7z"/>
<path d="M14815 8383 c-20 -19 -38 -63 -30 -71 8 -9 52 40 60 66 8 26 -7 29
-30 5z"/>
<path d="M12021 7932 c-11 -21 3 -52 24 -52 26 0 46 29 35 51 -13 24 -46 25
-59 1z"/>
<path d="M17910 7920 c0 -24 7 -35 33 -50 28 -16 34 -27 35 -56 1 -19 8 -47
16 -62 41 -75 56 -111 66 -157 14 -65 74 -153 109 -161 43 -9 51 -13 51 -23 0
-6 -13 -8 -30 -4 -34 6 -44 -15 -10 -24 18 -5 18 -7 4 -29 -17 -25 -15 -67 5
-119 22 -55 32 -59 56 -22 13 18 30 50 39 70 10 25 21 37 34 37 29 0 36 40 12
72 -26 35 -25 41 2 27 18 -10 24 -8 40 11 22 27 17 37 -33 57 -48 19 -50 33
-4 33 l35 0 -25 38 c-14 20 -51 60 -82 87 -99 87 -103 92 -103 130 0 19 4 35
8 35 4 0 30 -31 57 -69 50 -68 109 -120 122 -107 14 14 -53 119 -113 177 -75
74 -104 95 -113 81 -7 -11 -29 -15 -82 -13 -25 1 -46 11 -75 36 -21 19 -42 35
-46 35 -5 0 -8 -14 -8 -30z"/>
<path d="M18017 7943 c-26 -25 22 -46 73 -32 24 6 24 7 -12 23 -41 18 -51 19
-61 9z"/>
<path d="M12900 7885 c-12 -15 -5 -55 10 -55 12 0 30 34 30 54 0 20 -24 21
-40 1z"/>
<path d="M17591 7810 c-23 -16 -52 -37 -63 -47 -11 -10 -22 -17 -24 -15 -2 1
-3 0 -1 -2 1 -3 -9 -16 -23 -31 l-25 -27 30 -24 c17 -13 33 -24 38 -24 12 0 8
-29 -7 -53 -19 -30 -6 -59 38 -87 25 -15 36 -29 36 -46 0 -18 9 -27 36 -39 20
-8 45 -15 55 -15 22 0 44 -35 29 -45 -15 -9 8 -35 45 -51 33 -14 55 -4 55 25
0 9 5 22 11 28 14 14 -18 90 -42 98 -9 3 -25 15 -35 27 l-19 21 40 -8 c22 -4
50 -9 63 -11 13 -3 40 -13 60 -24 20 -11 47 -20 60 -20 12 0 33 -7 46 -15 22
-15 26 -14 52 8 l28 25 -36 58 c-40 64 -44 66 -140 49 -28 -5 -40 -3 -55 12
-23 23 -99 43 -135 36 -24 -4 -28 -2 -28 16 0 14 6 21 20 21 23 0 24 4 9 32
-9 16 -7 24 10 42 26 28 28 82 4 94 -46 24 -87 21 -132 -8z m-38 -84 c6 -16
-2 -28 -14 -20 -12 7 -11 34 0 34 5 0 11 -6 14 -14z"/>
<path d="M17823 7778 c-40 -10 -76 -65 -71 -110 2 -27 9 -34 33 -41 17 -5 43
-15 58 -23 37 -18 67 -18 95 2 28 19 28 30 0 38 l-23 7 23 11 c26 13 30 62 7
92 -17 23 -79 35 -122 24z"/>
<path d="M9704 7725 c-41 -18 -52 -33 -60 -82 -5 -36 -4 -41 17 -46 41 -11 62
10 74 74 2 12 14 28 25 36 42 29 1 43 -56 18z"/>
<path d="M9849 7698 c0 -7 -2 -21 -4 -30 -2 -11 3 -18 11 -18 8 0 22 -9 31
-20 23 -26 33 -25 33 3 -1 27 -17 50 -47 66 -18 9 -23 9 -24 -1z"/>
<path d="M12506 7673 c-9 -9 -7 -33 3 -33 12 0 22 28 12 34 -5 3 -11 3 -15 -1z"/>
<path d="M12418 7649 c-10 -6 -18 -14 -18 -19 0 -14 37 -12 46 1 10 17 -9 29
-28 18z"/>
<path d="M13 7435 c-17 -13 -17 -14 3 -37 28 -30 44 -62 44 -87 0 -30 55 -80
84 -75 16 3 33 -5 54 -26 26 -24 41 -30 76 -30 48 0 58 11 45 48 -5 14 -20 25
-39 28 -40 8 -44 17 -26 52 14 27 14 31 -3 46 -10 9 -27 16 -39 16 -12 0 -32
11 -43 24 -36 42 -123 65 -156 41z"/>
<path d="M12299 7434 c-12 -14 -11 -16 5 -13 11 2 21 10 24 17 5 17 -13 15
-29 -4z"/>
<path d="M12380 7443 c-8 -3 -26 -18 -38 -34 -20 -24 -22 -32 -12 -44 13 -16
8 -19 -24 -15 -21 2 -68 -39 -60 -52 3 -5 -3 -12 -15 -15 -12 -3 -21 -12 -21
-20 0 -7 -6 -13 -12 -12 -44 5 -50 -12 -16 -48 l22 -23 -30 1 c-61 4 -67 1
-59 -28 5 -23 4 -25 -10 -13 -13 11 -19 10 -35 -5 -29 -26 -26 -49 4 -41 18 4
36 -2 62 -19 45 -30 58 -32 51 -4 -4 16 -2 19 11 14 45 -20 58 -16 93 22 28
30 40 38 55 32 34 -14 45 -9 56 22 8 22 15 28 27 23 9 -4 28 -9 44 -12 24 -4
29 0 42 32 19 45 12 61 -19 41 -23 -15 -24 -14 -30 17 -5 24 -9 29 -18 20 -19
-19 -38 -14 -38 10 0 20 -1 20 -19 4 -18 -17 -20 -17 -30 1 -13 25 -9 47 11
70 40 47 45 85 8 76z"/>
<path d="M6500 7407 c0 -32 33 -61 59 -52 11 3 30 18 41 32 26 33 14 43 -52
43 -44 0 -48 -2 -48 -23z"/>
<path d="M17844 7416 c-3 -8 -2 -23 3 -33 11 -21 11 -35 -1 -82 -7 -30 -11
-33 -37 -27 -24 5 -30 2 -35 -18 -7 -27 9 -62 40 -87 18 -15 19 -20 8 -43 -20
-45 -16 -59 16 -51 15 3 31 10 35 15 11 10 12 75 3 116 -7 28 -6 31 30 42 21
6 40 10 42 8 2 -2 -1 -27 -6 -55 -8 -44 -7 -53 10 -68 12 -10 17 -25 14 -37
-5 -21 11 -105 23 -119 4 -4 22 4 41 18 40 29 52 25 37 -15 -14 -38 -1 -52 23
-23 23 28 30 21 20 -21 -7 -32 -1 -59 14 -57 21 3 26 -2 26 -24 0 -33 20 -75
36 -75 8 0 21 -12 31 -27 30 -50 56 -73 81 -73 21 0 23 4 21 38 -2 20 -9 48
-16 62 -7 14 -13 35 -13 47 0 12 -4 25 -10 28 -5 3 -10 24 -10 47 0 22 -8 52
-18 66 -25 38 -38 68 -62 140 -11 34 -36 82 -54 107 -19 24 -37 53 -41 64 -3
11 -15 23 -26 26 -19 6 -23 15 -20 47 2 21 -32 40 -67 37 -15 -2 -32 0 -39 4
-6 4 -19 4 -28 1 -8 -4 -15 -3 -14 2 4 24 -3 34 -26 34 -14 0 -28 -6 -31 -14z"/>
<path d="M18070 7371 c0 -10 9 -21 20 -24 36 -9 34 23 -2 36 -13 5 -18 1 -18
-12z"/>
<path d="M18634 7293 c-21 -8 -79 -15 -127 -16 -75 -2 -91 -5 -103 -21 -23
-32 -17 -40 42 -69 31 -16 54 -31 50 -34 -8 -9 24 -43 41 -43 7 0 13 -11 13
-25 0 -14 7 -36 15 -49 9 -13 18 -40 20 -60 6 -41 24 -76 42 -76 6 0 25 11 41
25 19 16 42 25 65 25 38 0 47 12 47 60 0 19 -6 31 -19 35 -21 6 -77 82 -68 91
3 3 22 -9 42 -28 20 -18 42 -33 48 -33 29 0 3 116 -39 176 -35 50 -60 60 -110
42z"/>
<path d="M18353 7147 c-21 -14 -33 -30 -33 -45 0 -13 -5 -32 -10 -42 -14 -27
6 -57 47 -71 28 -9 32 -14 27 -34 -8 -31 35 -62 64 -46 18 10 20 7 24 -29 3
-35 1 -39 -21 -42 -29 -4 -38 -39 -16 -62 9 -9 11 -17 6 -21 -12 -7 -4 -33 17
-58 9 -10 17 -28 19 -40 7 -46 12 -51 32 -32 20 17 20 47 1 70 -7 9 -8 15 -1
19 6 4 15 -3 21 -14 6 -11 14 -20 19 -20 13 0 22 91 11 105 -8 9 -6 14 6 19
15 6 15 8 0 31 -9 13 -16 31 -16 39 0 9 -9 20 -20 26 -16 9 -18 15 -9 38 5 15
19 34 30 43 21 15 21 16 -7 49 -16 18 -43 39 -61 46 -18 8 -33 18 -34 22 -4
45 -23 72 -48 71 -9 0 -31 -10 -48 -22z m157 -387 c0 -5 -5 -10 -11 -10 -5 0
-7 5 -4 10 3 6 8 10 11 10 2 0 4 -4 4 -10z"/>
<path d="M18856 7147 c-44 -15 -33 -44 22 -60 55 -16 62 -14 62 20 0 22 3 24
25 19 25 -6 35 7 14 20 -17 10 -94 11 -123 1z"/>
<path d="M417 7076 c-6 -15 1 -26 15 -26 11 0 10 27 -1 34 -5 3 -11 0 -14 -8z"/>
<path d="M18846 7065 c-21 -22 -16 -39 13 -43 37 -6 49 14 25 39 -20 19 -22
19 -38 4z"/>
<path d="M12007 7041 c-7 -27 19 -61 47 -61 31 0 39 24 18 49 -26 30 -58 36
-65 12z"/>
<path d="M12103 7053 c-9 -3 -5 -14 12 -37 29 -38 32 -68 8 -91 -16 -16 -17
-16 -30 1 -7 9 -16 14 -20 10 -8 -7 -9 -11 -12 -37 -1 -8 -6 -8 -16 1 -12 10
-15 10 -15 -3 0 -8 -7 -20 -15 -27 -13 -11 -15 -8 -16 16 -2 81 -17 124 -43
124 -26 -1 -86 -71 -86 -101 0 -14 87 -64 112 -64 4 0 7 -4 6 -10 -2 -5 -10
-9 -18 -7 -8 2 -31 6 -50 9 l-34 6 18 -27 c16 -25 16 -31 3 -65 -10 -24 -12
-43 -6 -52 13 -21 11 -35 -3 -21 -20 20 -44 14 -58 -15 -12 -25 -14 -26 -17
-8 -2 11 -8 32 -13 46 -8 27 -8 27 32 21 l41 -5 -8 29 c-4 16 -8 38 -10 49 -1
11 -3 23 -4 28 -3 18 -43 47 -67 47 -14 0 -51 -16 -82 -37 -56 -36 -142 -126
-142 -148 0 -7 18 -31 41 -53 38 -39 40 -45 38 -94 -2 -47 3 -61 41 -120 23
-38 46 -65 51 -62 20 12 38 64 41 115 3 48 1 54 -22 66 l-25 13 26 0 c14 0 33
-6 43 -13 14 -10 15 -18 7 -40 -12 -32 -1 -35 25 -6 24 27 60 47 49 27 -5 -7
-17 -23 -28 -35 -22 -24 -15 -52 9 -32 20 17 17 -4 -4 -27 -20 -21 -82 -110
-82 -117 0 -3 10 -7 22 -10 13 -4 43 6 79 25 52 28 58 34 52 56 -4 18 1 29 21
46 24 18 26 25 17 48 -9 23 -7 28 9 33 11 4 20 15 20 26 0 12 7 19 18 19 10 0
28 7 40 16 12 8 22 10 22 5 0 -6 -4 -11 -9 -11 -13 0 -28 -50 -23 -77 4 -29
17 -29 58 2 18 14 44 29 58 35 35 13 33 28 -6 45 -27 12 -29 14 -11 15 33 0
37 17 8 36 -13 9 -22 20 -19 25 7 12 64 11 64 -1 0 -14 52 -12 73 4 43 33 2
84 -65 80 -21 -1 -38 2 -38 7 0 5 6 10 13 10 6 1 26 3 42 5 17 2 47 -5 68 -16
21 -11 44 -20 52 -20 8 0 24 -9 35 -20 11 -11 26 -17 35 -14 21 9 19 25 -5 31
-25 7 -25 9 5 58 14 22 25 43 25 47 0 4 -16 14 -35 22 -19 8 -38 23 -42 32
-10 26 11 49 41 46 31 -4 35 14 4 24 -12 3 -36 22 -54 40 -17 19 -37 34 -43
34 -13 0 -48 -33 -74 -69 -23 -33 -33 -19 -19 26 14 44 2 63 -38 63 -15 0 -33
7 -40 15 -13 16 -17 17 -37 8z"/>
<path d="M12253 7043 c-16 -6 -17 -33 -3 -33 11 0 26 28 19 34 -2 2 -10 1 -16
-1z"/>
<path d="M12350 7033 c0 -25 15 -38 25 -22 4 6 0 18 -9 27 -15 15 -16 15 -16
-5z"/>
<path d="M18945 7041 c-3 -5 -1 -12 5 -16 5 -3 10 1 10 9 0 18 -6 21 -15 7z"/>
<path d="M6607 7023 c-3 -5 3 -24 14 -42 18 -29 24 -33 52 -27 28 6 46 20 47
38 0 19 -103 47 -113 31z"/>
<path d="M464 7003 c3 -19 27 -25 38 -9 10 14 0 26 -22 26 -12 0 -17 -6 -16
-17z"/>
<path d="M19050 6970 c0 -33 -4 -50 -12 -51 -28 -3 -34 -4 -49 -14 -23 -14
-36 -46 -33 -80 4 -39 28 -57 61 -44 35 13 53 11 53 -5 0 -8 7 -27 14 -43 8
-15 17 -36 20 -45 4 -15 11 -12 40 18 31 32 34 39 24 62 -5 15 -11 40 -13 56
-2 17 -13 37 -26 47 -13 10 -20 21 -16 25 4 4 16 -1 27 -11 31 -28 44 -5 41
66 -1 22 -10 30 -50 48 -75 32 -81 30 -81 -29z"/>
<path d="M157 6993 c-4 -3 -7 -21 -7 -39 0 -24 8 -39 31 -58 48 -41 86 -33
123 26 20 31 13 38 -43 45 -20 3 -48 11 -63 19 -31 16 -32 16 -41 7z"/>
<path d="M18851 6978 c-32 -34 -38 -68 -15 -85 29 -21 63 -27 79 -13 13 11 32
96 24 104 -2 2 -18 7 -36 10 -25 6 -35 3 -52 -16z"/>
<path d="M18975 6990 c-3 -5 3 -10 14 -10 12 0 21 5 21 10 0 6 -6 10 -14 10
-8 0 -18 -4 -21 -10z"/>
<path d="M18693 6863 l-63 -4 0 -43 c0 -49 8 -55 73 -57 l42 -1 -37 -15 c-32
-13 -37 -19 -32 -38 4 -18 1 -25 -16 -30 -18 -6 -21 -13 -18 -53 4 -63 28 -68
62 -13 15 24 34 41 48 43 24 3 27 18 13 73 l-7 30 24 -35 c14 -19 30 -50 36
-69 7 -19 19 -42 27 -51 13 -15 13 -20 -1 -50 -22 -43 -24 -99 -4 -112 15 -10
48 0 82 24 25 18 32 4 13 -31 -18 -37 -8 -66 27 -77 22 -7 38 -21 38 -36 0
-17 -57 -7 -74 13 -16 20 -19 20 -34 5 -15 -14 -14 -18 8 -41 13 -14 44 -31
67 -37 24 -6 43 -16 43 -24 0 -23 17 -24 45 -3 20 16 29 19 38 10 6 -6 19 -11
28 -11 14 0 17 7 15 35 -5 46 7 45 23 -2 7 -21 23 -45 34 -55 18 -14 19 -20 9
-42 -21 -46 8 -73 56 -52 12 5 23 7 25 5 2 -2 20 -28 41 -57 36 -49 41 -53 75
-50 l36 3 0 52 c1 35 -4 54 -13 58 -7 3 -10 9 -7 15 11 18 -18 70 -35 65 -14
-4 -15 4 -12 55 4 62 -3 110 -16 110 -4 0 -14 -15 -22 -33 -9 -20 -24 -33 -37
-35 -29 -4 -29 5 -1 35 17 18 19 26 10 35 -7 7 -12 20 -12 29 0 14 -10 19 -42
21 -32 2 -44 8 -46 21 -3 13 2 18 15 17 32 -4 43 0 43 13 0 14 -40 37 -64 37
-8 0 -16 7 -19 15 -16 41 -90 122 -150 165 -71 50 -105 56 -114 18 -7 -23 -7
-23 -37 6 -17 15 -26 34 -26 54 0 33 -21 80 -42 93 -7 5 -22 8 -33 7 -11 -1
-48 -3 -82 -5z m466 -405 c-40 -25 -49 -23 -49 10 0 39 5 42 45 24 l34 -16
-30 -18z m116 -298 c3 -5 1 -10 -4 -10 -6 0 -11 5 -11 10 0 6 2 10 4 10 3 0 8
-4 11 -10z"/>
<path d="M18856 6852 c-3 -6 1 -15 8 -21 8 -7 17 -8 20 -3 3 6 -1 15 -8 21 -8
7 -17 8 -20 3z"/>
<path d="M18880 6750 c0 -5 5 -10 10 -10 6 0 10 5 10 10 0 6 -4 10 -10 10 -5
0 -10 -4 -10 -10z"/>
<path d="M18786 6602 c-3 -5 4 -19 15 -31 25 -27 46 -18 26 12 -16 24 -33 32
-41 19z"/>
<path d="M18590 6580 c-13 -8 -13 -12 0 -36 20 -36 40 -42 40 -12 0 35 -21 60
-40 48z"/>
<path d="M18712 6532 c-19 -6 -14 -29 10 -52 25 -23 48 -26 48 -6 0 8 9 17 19
21 22 7 36 34 18 36 -36 5 -84 5 -95 1z"/>
<path d="M18457 6523 c-6 -10 9 -49 22 -57 11 -7 54 48 44 58 -9 9 -61 8 -66
-1z"/>
<path d="M954 6485 c-9 -23 3 -44 23 -41 22 3 30 35 11 47 -19 13 -28 11 -34
-6z"/>
<path d="M18846 6394 c-10 -25 -7 -34 9 -34 8 0 15 9 15 19 0 26 -16 35 -24
15z"/>
<path d="M18732 6349 c-12 -11 -22 -24 -22 -29 0 -6 0 -13 0 -17 -1 -13 29
-11 49 4 24 16 27 36 8 52 -10 8 -19 6 -35 -10z"/>
<path d="M18805 6350 c-7 -12 2 -30 16 -30 12 0 12 27 0 35 -5 3 -12 1 -16 -5z"/>
<path d="M11790 6265 c0 -8 7 -15 15 -15 8 0 15 7 15 15 0 8 -7 15 -15 15 -8
0 -15 -7 -15 -15z"/>
<path d="M19603 6251 l-22 -27 37 -17 c33 -15 38 -15 53 -1 19 17 15 42 -9 62
-23 18 -34 14 -59 -17z"/>
<path d="M18790 6256 c-14 -18 -10 -58 6 -63 7 -2 16 9 21 24 16 45 -1 69 -27
39z"/>
<path d="M18870 6244 c-6 -15 -9 -33 -6 -41 6 -15 34 -17 56 -3 13 8 13 13 -2
37 -23 38 -36 40 -48 7z"/>
<path d="M10734 6248 c-10 -16 5 -25 38 -22 18 1 46 3 61 3 18 1 27 6 25 14
-5 14 -116 19 -124 5z"/>
<path d="M11625 6211 c-51 -32 -85 -75 -83 -104 1 -15 5 -27 8 -27 3 0 29 16
57 35 94 63 111 154 18 96z"/>
<path d="M18959 6223 c0 -5 -2 -16 -4 -27 -6 -32 46 -114 98 -153 28 -21 66
-55 86 -75 20 -21 44 -38 54 -38 27 0 20 35 -15 73 -78 83 -74 76 -50 93 38
27 27 86 -20 110 -36 19 -45 12 -30 -21 14 -30 16 -75 4 -75 -11 0 -52 44 -52
56 0 26 -68 81 -71 57z"/>
<path d="M11723 6196 c-23 -20 -25 -26 -15 -39 9 -11 28 -14 68 -12 79 5 106
34 51 54 -59 22 -76 21 -104 -3z"/>
<path d="M19853 6085 c-14 -28 -14 -38 -4 -48 17 -17 62 34 54 63 -8 31 -31
24 -50 -15z"/>
<path d="M19169 6080 c-23 -20 -23 -21 -5 -33 10 -7 31 -22 47 -35 33 -27 45
-15 25 25 -8 15 -17 36 -20 46 -7 22 -18 22 -47 -3z"/>
<path d="M1403 6052 c-14 -19 -31 -28 -54 -30 -54 -4 -89 -24 -89 -49 0 -25
27 -32 48 -11 9 9 20 7 46 -7 29 -16 39 -17 60 -7 14 6 26 20 26 29 1 10 7 29
15 43 12 22 11 27 -2 43 -21 23 -26 22 -50 -11z"/>
<path d="M9430 6055 c0 -9 5 -15 11 -13 6 2 11 8 11 13 0 5 -5 11 -11 13 -6 2
-11 -4 -11 -13z"/>
<path d="M10877 6033 c-12 -11 -8 -40 8 -53 12 -10 15 -7 21 14 8 35 -9 59
-29 39z"/>
<path d="M9501 5996 c-7 -8 -8 -17 -3 -20 6 -3 15 1 21 8 7 8 8 17 3 20 -6 3
-15 -1 -21 -8z"/>
<path d="M10902 5938 c-16 -16 -15 -48 2 -48 7 0 19 7 26 16 18 21 -9 51 -28
32z"/>
<path d="M1600 5925 c-10 -13 -9 -15 9 -15 12 0 21 6 21 15 0 8 -4 15 -9 15
-5 0 -14 -7 -21 -15z"/>
<path d="M1630 5881 c0 -5 7 -14 15 -21 18 -15 42 1 31 19 -8 13 -46 15 -46 2z"/>
<path d="M9982 5840 c-39 -52 -20 -71 23 -24 19 21 22 30 14 40 -14 18 -12 19
-37 -16z"/>
<path d="M1700 5843 c-25 -13 -28 -32 -8 -44 14 -9 79 21 72 33 -12 19 -40 24
-64 11z"/>
<path d="M1584 5786 c3 -30 23 -56 42 -56 17 0 17 3 0 45 -17 41 -46 48 -42
11z"/>
<path d="M8655 5800 c3 -5 8 -10 11 -10 2 0 4 5 4 10 0 6 -5 10 -11 10 -5 0
-7 -4 -4 -10z"/>
<path d="M11246 5780 c-18 -20 -25 -36 -21 -49 10 -31 34 -34 45 -5 30 77 20
100 -24 54z"/>
<path d="M8769 5764 c-11 -14 -10 -16 9 -12 13 1 23 7 23 13 1 17 -17 16 -32
-1z"/>
<path d="M2059 5687 c-28 -22 -30 -57 -4 -83 26 -26 49 -30 89 -14 34 13 34
51 1 85 -28 27 -60 32 -86 12z"/>
<path d="M9643 5665 c-17 -13 -16 -14 12 -25 30 -12 59 -4 56 15 -3 17 -49 24
-68 10z"/>
<path d="M9483 5660 c-29 -12 -40 -35 -45 -98 -4 -50 -3 -52 20 -52 13 0 37
-8 53 -17 15 -9 31 -14 35 -10 4 4 8 43 9 87 2 69 1 80 -14 80 -9 0 -21 4 -26
9 -6 5 -20 5 -32 1z"/>
<path d="M1683 5629 c-16 -16 -6 -39 33 -76 19 -18 34 -40 34 -50 -1 -32 64
-151 88 -162 25 -12 75 -15 85 -5 3 4 -5 16 -19 27 -48 38 -104 117 -104 148
0 22 -13 44 -46 79 -50 54 -54 56 -71 39z"/>
<path d="M8360 5611 c-14 -5 -44 -18 -67 -30 -33 -18 -51 -21 -86 -16 -62 10
-80 1 -101 -46 -13 -28 -33 -49 -66 -70 -52 -32 -70 -65 -70 -130 0 -34 4 -40
28 -46 15 -4 52 -7 82 -8 51 0 60 4 105 41 68 57 97 65 165 47 100 -26 162
-32 192 -17 17 9 29 10 33 4 14 -22 26 -8 23 28 -3 35 -5 37 -36 37 -38 0 -51
15 -46 53 11 87 2 122 -39 143 -28 16 -85 20 -117 10z"/>
<path d="M9135 5601 c-7 -13 17 -24 40 -19 9 1 16 8 16 13 0 14 -48 19 -56 6z"/>
<path d="M9586 5595 c-3 -9 1 -18 9 -21 18 -7 47 14 39 27 -9 15 -41 10 -48
-6z"/>
<path d="M9710 5595 c0 -8 7 -15 15 -15 8 0 15 7 15 15 0 8 -7 15 -15 15 -8 0
-15 -7 -15 -15z"/>
<path d="M9237 5583 c-14 -13 -6 -33 12 -33 24 0 35 26 15 34 -19 7 -19 7 -27
-1z"/>
<path d="M9067 5541 c7 -28 48 -44 64 -24 11 13 10 17 -6 29 -29 21 -64 18
-58 -5z"/>
<path d="M9754 5535 c-4 -8 -12 -15 -18 -15 -21 0 -76 -65 -76 -90 0 -14 -9
-36 -20 -50 -19 -24 -26 -50 -15 -50 19 0 85 43 85 55 0 8 9 19 20 25 11 6 20
16 20 23 0 7 10 17 23 22 12 6 21 16 19 23 -4 22 -10 57 -11 65 -2 13 -21 7
-27 -8z"/>
<path d="M9027 5513 c-10 -9 -9 -23 2 -23 5 0 11 7 15 15 5 15 -5 20 -17 8z"/>
<path d="M9883 5512 c-24 -15 -57 -122 -37 -122 21 0 44 25 49 54 9 46 3 77
-12 68z"/>
<path d="M9165 5500 c-8 -13 4 -32 16 -25 12 8 12 35 0 35 -6 0 -13 -4 -16
-10z"/>
<path d="M8877 5473 c-13 -3 -16 -10 -11 -21 4 -10 8 -28 9 -42 2 -23 7 -26
34 -21 13 2 34 59 27 76 -5 15 -23 17 -59 8z"/>
<path d="M9050 5454 c0 -14 3 -14 15 -4 8 7 15 14 15 16 0 2 -7 4 -15 4 -8 0
-15 -7 -15 -16z"/>
<path d="M8810 5420 c0 -19 11 -26 23 -14 8 8 -3 34 -14 34 -5 0 -9 -9 -9 -20z"/>
<path d="M9921 5398 c-16 -43 12 -66 40 -32 9 11 10 20 3 32 -16 25 -33 26
-43 0z"/>
<path d="M9036 5395 c-4 -12 -1 -16 11 -13 18 3 21 20 5 26 -5 1 -12 -4 -16
-13z"/>
<path d="M2579 5319 c-9 -17 -8 -25 4 -37 9 -8 23 -12 31 -9 21 8 21 53 0 61
-22 8 -22 8 -35 -15z"/>
<path d="M9956 5303 c-9 -21 16 -37 27 -17 9 15 2 34 -13 34 -4 0 -11 -8 -14
-17z"/>
<path d="M2836 5283 c-12 -25 -12 -30 10 -65 30 -47 30 -56 2 -60 -29 -4 -32
-36 -7 -69 l18 -24 45 25 c25 13 48 30 51 37 2 7 16 18 30 23 28 11 25 35 -6
43 -10 3 -22 13 -25 24 -18 56 -28 71 -50 82 -38 17 -52 14 -68 -16z"/>
<path d="M9781 5281 c-10 -6 -10 -10 -1 -16 13 -8 24 -1 19 14 -3 6 -10 7 -18
2z"/>
<path d="M7663 5223 c1 -27 5 -47 10 -45 4 1 19 2 35 2 15 0 34 5 42 10 13 8
11 14 -12 35 -16 14 -28 30 -28 35 0 6 -11 10 -25 10 -22 0 -24 -3 -22 -47z"/>
<path d="M9840 5250 c-11 -20 -6 -40 8 -40 20 1 34 19 27 39 -8 26 -21 27 -35
1z"/>
<path d="M7518 5246 c-38 -28 -8 -100 42 -104 43 -3 70 6 70 24 0 24 -31 64
-61 80 -33 17 -30 17 -51 0z"/>
<path d="M8667 5203 c-14 -13 -6 -33 20 -58 31 -28 55 -32 72 -11 27 33 -62
99 -92 69z"/>
<path d="M2526 5192 c-13 -12 -5 -42 14 -52 16 -8 21 -6 31 11 8 15 8 24 0 32
-13 13 -37 18 -45 9z"/>
<path d="M3101 5186 c-9 -10 -9 -16 -1 -21 17 -10 37 12 24 25 -8 8 -15 6 -23
-4z"/>
<path d="M7937 5187 c-3 -8 -1 -20 4 -28 8 -12 12 -11 24 5 8 10 12 23 9 27
-8 14 -31 11 -37 -4z"/>
<path d="M2616 5174 c-8 -20 -1 -30 24 -37 23 -6 28 21 8 41 -16 16 -25 15
-32 -4z"/>
<path d="M7128 5166 c-53 -37 -57 -61 -18 -101 l31 -32 -26 -7 c-15 -4 -51
-31 -80 -61 -55 -55 -61 -58 -170 -70 -68 -8 -78 -12 -93 -36 -12 -18 -11 -24
8 -44 17 -18 29 -22 58 -18 49 5 133 32 152 47 16 13 45 13 116 1 35 -6 44 -4
55 13 8 10 28 22 46 26 17 4 37 14 44 22 12 15 57 37 97 49 12 3 22 11 22 16
0 6 8 8 18 5 21 -7 35 2 51 31 8 16 8 24 0 29 -15 9 -59 -16 -59 -34 0 -13 -3
-13 -18 1 -10 10 -24 17 -30 17 -19 0 -14 20 6 21 58 2 82 15 82 42 0 48 -49
61 -115 30 -44 -21 -54 -11 -31 28 10 17 16 32 14 34 -2 2 -30 7 -63 10 -53 5
-64 3 -97 -19z m47 -156 c3 -5 2 -10 -4 -10 -5 0 -13 5 -16 10 -3 6 -2 10 4
10 5 0 13 -4 16 -10z"/>
<path d="M3181 5139 c-34 -37 -93 -49 -137 -27 -25 13 -34 13 -61 2 -48 -20
-43 -44 10 -45 58 -1 85 -7 110 -24 30 -21 76 -19 84 3 4 9 20 31 35 47 31 33
34 45 16 63 -18 18 -26 15 -57 -19z"/>
<path d="M7745 5130 c3 -5 16 -10 28 -10 18 0 19 2 7 10 -20 13 -43 13 -35 0z"/>
<path d="M3340 5107 c-11 -11 -20 -27 -20 -34 0 -12 -13 -17 -32 -14 -4 0 -15
-11 -25 -27 -10 -15 -28 -38 -42 -51 -24 -23 -24 -24 -6 -37 11 -8 26 -12 35
-8 27 10 35 9 32 -4 -3 -17 55 -7 115 20 53 24 59 32 33 58 -22 22 -27 55 -9
65 7 5 5 13 -6 25 -26 28 -53 31 -75 7z"/>
<path d="M7840 5120 c-12 -7 -10 -11 10 -18 31 -12 45 -5 29 14 -13 16 -19 17
-39 4z"/>
<path d="M2438 5096 c-12 -29 -5 -56 16 -56 18 0 30 33 21 60 -9 27 -23 25
-37 -4z"/>
<path d="M3578 5103 c-13 -3 -18 -14 -18 -37 0 -46 38 -64 81 -39 32 19 35 29
14 57 -15 19 -44 26 -77 19z"/>
<path d="M2362 5068 c-13 -13 -16 -41 -6 -51 8 -7 54 22 54 34 0 16 -36 29
-48 17z"/>
<path d="M2703 5065 c-3 -9 -3 -18 0 -22 10 -10 37 6 37 22 0 20 -29 20 -37 0z"/>
<path d="M3835 5060 c-8 -12 20 -24 35 -15 5 3 10 10 10 16 0 12 -37 12 -45
-1z"/>
<path d="M4322 5024 l-33 -26 22 -24 c34 -36 28 -39 -131 -44 -25 -1 -83 3
-128 10 -89 12 -137 7 -146 -15 -5 -14 68 -37 129 -40 17 -1 39 -6 50 -12 11
-5 38 -9 60 -9 22 1 52 -4 68 -12 20 -9 32 -10 47 -2 16 8 26 7 42 -5 31 -21
55 -19 69 8 7 12 25 34 42 49 25 24 28 33 23 68 -3 22 -10 49 -16 60 -15 28
-58 25 -98 -6z"/>
<path d="M6650 5015 c-7 -8 -22 -15 -34 -15 -43 0 -63 -27 -65 -87 -1 -21 -6
-23 -53 -23 -49 0 -56 -3 -85 -37 -18 -21 -33 -43 -33 -50 0 -13 -76 -92 -90
-94 -20 -3 -25 -4 -37 -12 -7 -5 -13 -12 -13 -18 0 -16 41 -10 90 15 37 18 56
23 77 17 24 -7 34 -2 69 28 127 111 134 115 207 124 54 7 77 21 77 46 0 9 7
27 16 39 19 28 7 48 -43 69 -42 17 -68 17 -83 -2z"/>
<path d="M3484 5002 c-6 -4 -16 -17 -23 -30 -10 -19 -10 -26 0 -39 12 -13 15
-13 31 7 27 34 21 81 -8 62z"/>
<path d="M3590 4977 c0 -21 12 -28 27 -16 19 16 16 29 -7 29 -11 0 -20 -6 -20
-13z"/>
<path d="M3690 4974 c0 -8 5 -12 10 -9 6 4 8 11 5 16 -9 14 -15 11 -15 -7z"/>
<path d="M3844 4976 c-8 -22 3 -33 18 -18 9 9 9 15 0 24 -9 9 -13 7 -18 -6z"/>
<path d="M3748 4973 c-22 -5 -23 -22 -4 -29 18 -7 58 14 51 27 -6 9 -18 10
-47 2z"/>
<path d="M3526 4954 c-7 -19 10 -44 29 -44 7 0 18 7 25 15 10 12 10 18 0 30
-16 20 -46 19 -54 -1z"/>
<path d="M6047 4913 c-11 -18 -15 -79 -7 -93 13 -21 50 15 50 50 0 35 -30 65
-43 43z"/>
<path d="M4400 4830 c0 -12 49 -60 61 -60 5 0 23 -13 41 -29 26 -23 47 -30 93
-35 33 -4 68 -9 77 -12 9 -3 33 -6 53 -8 28 -3 35 -1 33 11 -4 20 -20 28 -82
44 -27 7 -64 26 -82 42 -24 21 -45 29 -76 31 -24 1 -53 7 -65 14 -27 15 -53
16 -53 2z"/>
<path d="M5896 4805 c-4 -12 -1 -16 11 -13 18 3 21 20 5 26 -5 1 -12 -4 -16
-13z"/>
<path d="M4958 4791 c-18 -9 -34 -24 -36 -33 -3 -15 5 -18 51 -18 60 0 89 18
68 44 -19 22 -48 25 -83 7z"/>
<path d="M5983 4782 c-39 -4 -64 -29 -42 -43 8 -5 24 -9 35 -9 12 0 27 -7 34
-15 15 -18 27 -9 30 20 5 46 -3 53 -57 47z"/>
<path d="M5853 4759 c-15 -15 -17 -45 -5 -53 11 -7 52 4 52 14 0 4 -8 18 -17
29 -15 18 -20 20 -30 10z"/>
<path d="M5480 4735 c0 -9 5 -15 11 -13 6 2 11 8 11 13 0 5 -5 11 -11 13 -6 2
-11 -4 -11 -13z"/>
<path d="M5620 4743 c-27 -10 -50 -36 -50 -56 0 -17 5 -18 45 -14 25 3 50 9
55 12 13 8 13 55 1 55 -5 0 -15 2 -23 4 -7 3 -20 2 -28 -1z"/>
<path d="M5407 4713 c-10 -10 -8 -41 3 -48 13 -8 50 3 50 15 0 11 -29 40 -39
40 -4 0 -11 -3 -14 -7z"/>
</g>
</svg>
